 <svg version="1.0" xmlns="http://www.w3.org/2000/svg" width="700.000000pt" height="695.000000pt" viewBox="0 0 700.000000 695.000000" preserveAspectRatio="xMidYMid meet">
<metadata>
Created by potrace 1.12, written by Peter Selinger 2001-2015
</metadata>
<g transform="translate(0.000000,695.000000) scale(0.100000,-0.100000)" fill="#000000" stroke="none">
<path d="M717 6764 c-25 -13 -27 -20 -27 -75 0 -51 4 -64 25 -85 21 -21 31
-24 61 -18 29 5 42 2 77 -23 58 -42 142 -83 168 -83 13 0 38 -4 56 -10 18 -5
50 -15 71 -21 101 -30 159 -69 183 -123 24 -55 46 -358 30 -408 -16 -47 -54
-86 -154 -157 -106 -76 -204 -187 -251 -285 -36 -76 -56 -133 -56 -157 1 -8
-26 -68 -59 -134 -108 -217 -131 -296 -131 -459 0 -87 11 -169 33 -251 6 -22
13 -175 16 -340 l6 -300 52 -105 c28 -58 54 -121 58 -140 9 -47 24 -69 109
-160 55 -59 78 -94 100 -150 33 -85 105 -194 130 -198 19 -4 23 -12 -68 146
-40 71 -44 92 -18 92 31 0 60 -29 87 -88 42 -92 104 -182 169 -248 54 -53 71
-63 148 -88 154 -50 228 -22 277 108 25 66 28 69 76 87 76 28 152 100 187 178
27 59 31 77 31 167 0 110 -3 122 -66 254 -34 72 -56 101 -141 186 -110 109
-157 137 -263 160 -78 16 -219 19 -228 4 -11 -18 -64 -11 -75 9 -12 23 -14
287 -2 295 13 8 30 -8 42 -38 9 -23 13 -26 25 -16 32 26 9 147 -33 181 -44 34
-93 24 -120 -25 -14 -26 -17 -57 -16 -187 2 -224 27 -401 96 -687 38 -160 30
-205 -35 -188 -13 3 -36 17 -52 32 -26 24 -27 24 -22 4 7 -27 -33 -56 -60 -42
-10 5 -30 15 -44 22 -79 36 -201 183 -215 256 -3 19 -10 37 -15 40 -5 3 -9 20
-9 37 0 18 -5 48 -10 67 -6 19 -12 145 -14 280 -3 182 -8 259 -19 300 -46 161
-47 171 -47 328 0 156 12 249 44 338 59 168 225 419 256 388 8 -8 5 -26 -11
-65 -35 -89 -49 -160 -39 -204 7 -30 5 -45 -5 -62 -8 -12 -15 -35 -15 -49 0
-15 -5 -43 -12 -61 -9 -26 -9 -36 0 -45 9 -9 12 -6 12 13 0 14 7 34 15 45 8
10 15 30 15 44 0 14 7 45 16 70 8 24 19 80 24 123 12 99 24 136 76 217 22 36
44 76 47 90 10 36 35 66 46 54 5 -5 16 -103 25 -219 9 -115 19 -221 22 -235
10 -45 37 -71 81 -77 l40 -5 12 78 c7 44 16 102 21 129 5 28 14 91 21 140 16
124 36 211 55 240 25 38 70 34 117 -11 75 -72 113 -189 157 -494 11 -74 24
-165 30 -202 13 -89 13 -161 -2 -176 -8 -8 -6 -23 12 -59 34 -72 42 -85 83
-147 41 -61 42 -81 5 -95 -21 -8 -21 -9 12 -26 19 -9 62 -47 95 -84 33 -36 95
-105 137 -152 42 -46 91 -102 107 -123 48 -61 130 -242 161 -356 19 -71 41
-119 68 -145 38 -38 53 -33 50 18 -3 37 0 42 19 45 28 4 43 -29 43 -97 0 -184
88 -402 228 -564 l50 -59 4 -226 c3 -179 8 -237 21 -272 16 -43 15 -45 -3 -65
-11 -12 -20 -30 -20 -40 0 -21 -15 -71 -38 -128 -9 -22 -40 -60 -71 -87 -31
-27 -52 -52 -49 -56 4 -4 32 5 61 20 61 29 92 33 101 11 5 -15 114 -88 182
-123 32 -16 85 -28 137 -31 5 -1 7 -16 5 -33 -3 -29 -7 -34 -43 -41 -22 -5
-83 -11 -136 -14 -94 -5 -98 -4 -174 31 -43 20 -86 36 -96 36 -115 0 -470 148
-659 274 -46 31 -85 55 -87 53 -1 -2 13 -23 33 -46 41 -47 108 -93 223 -151
80 -40 121 -78 121 -111 0 -10 9 -34 20 -54 26 -45 25 -70 -1 -107 -27 -37
-35 -103 -18 -143 l13 -30 6 45 c8 62 27 95 45 80 8 -7 18 -28 21 -49 4 -20
22 -71 41 -114 34 -80 41 -117 23 -117 -15 0 -11 -32 8 -62 37 -58 119 -195
140 -234 47 -88 29 -98 -172 -91 -88 2 -166 10 -186 17 -19 7 -64 24 -100 37
-41 15 -92 45 -140 83 -41 33 -79 60 -84 60 -14 0 -198 125 -220 149 -11 12
-31 21 -47 21 -34 0 -42 -21 -37 -96 2 -41 6 -49 23 -50 11 -1 25 -2 32 -3 10
-1 69 -69 192 -221 24 -30 47 -57 50 -60 3 -3 28 -34 55 -69 48 -64 48 -64 40
-115 -11 -65 -30 -68 -69 -13 -78 111 -119 172 -129 191 -25 47 -89 136 -94
131 -6 -6 11 -40 54 -110 17 -27 33 -57 37 -65 3 -8 39 -62 79 -120 63 -90 82
-109 128 -133 45 -23 66 -27 132 -27 151 0 315 -38 385 -89 21 -15 58 -47 83
-70 l45 -42 -28 -20 c-39 -30 -48 -50 -37 -91 7 -25 20 -39 45 -51 41 -20 45
-13 10 15 -31 24 -34 72 -6 88 31 16 55 12 92 -15 19 -13 52 -33 74 -44 55
-28 75 -45 75 -65 0 -19 18 -21 39 -3 27 22 134 83 171 97 65 25 145 82 214
154 113 116 153 230 125 359 -11 56 -18 66 -77 122 -79 74 -92 99 -92 172 0
32 -8 83 -19 112 -21 60 -16 99 19 136 11 12 20 26 20 33 0 6 9 27 21 46 l21
36 76 1 c43 1 82 0 87 -1 6 -2 55 -5 110 -7 92 -4 105 -3 159 22 32 14 100 32
150 40 91 14 191 45 254 79 18 9 72 53 119 96 47 44 110 94 142 112 203 114
290 205 382 398 34 71 40 91 35 125 -5 33 -1 50 24 95 66 121 111 218 125 273
19 73 19 237 1 298 -23 76 -54 129 -75 129 -53 0 -79 -94 -84 -300 -4 -153
-19 -207 -68 -251 -38 -34 -107 -53 -164 -46 -40 6 -136 -5 -175 -19 -22 -9
67 -34 120 -34 86 0 174 33 266 101 29 21 54 35 58 32 21 -21 -19 -139 -63
-188 -46 -51 -73 -112 -78 -178 -5 -64 -9 -79 -51 -162 -56 -112 -169 -225
-226 -225 -24 0 -24 1 -20 68 2 37 7 82 10 100 7 36 -11 45 -20 9 -8 -34 -75
-107 -97 -107 -10 0 -19 -4 -19 -10 0 -5 5 -10 10 -10 14 0 12 -36 -3 -62 -54
-96 -155 -187 -263 -239 -50 -23 -68 -28 -83 -19 -42 22 -98 7 -225 -60 -56
-30 -92 -42 -125 -43 -52 -2 -197 20 -223 34 -10 5 -24 9 -33 9 -18 0 -34 30
-27 50 3 8 15 29 27 45 13 17 35 54 49 83 16 32 33 52 44 52 9 1 31 9 47 18
40 23 175 164 175 184 0 17 -134 146 -267 257 -52 43 -63 63 -43 76 14 9 48
-12 105 -63 77 -70 149 -112 189 -112 19 0 38 5 41 10 3 6 15 10 26 10 20 0
60 37 82 75 7 12 26 41 44 65 18 23 42 68 53 99 12 31 32 79 46 107 22 46 24
61 22 165 -3 135 2 149 95 241 99 98 117 130 117 213 0 92 -20 171 -68 275
-63 136 -201 255 -319 275 -59 9 -70 26 -44 68 43 70 167 100 237 57 31 -20
104 -117 104 -139 0 -5 13 -34 30 -63 33 -58 89 -172 101 -203 16 -44 29 -188
29 -319 0 -90 6 -168 16 -220 15 -70 15 -97 5 -204 -7 -68 -18 -138 -26 -155
-25 -58 -65 -217 -65 -261 0 -73 -57 -224 -110 -291 -29 -36 -39 -65 -22 -65
4 0 20 8 35 19 92 60 186 219 187 312 0 41 32 200 49 243 7 16 19 35 28 41 11
8 13 14 5 19 -8 5 -10 42 -6 124 4 74 2 139 -6 177 -7 33 -15 146 -20 250 -10
250 -44 386 -130 510 -17 24 -39 72 -50 106 -29 88 -76 151 -141 185 -26 13
-38 14 -82 3 -79 -19 -106 -36 -173 -105 -50 -53 -69 -65 -106 -72 -103 -20
-176 -79 -215 -173 -20 -49 -24 -181 -9 -281 8 -55 7 -58 -13 -58 -14 0 -26
12 -40 43 -11 23 -31 57 -44 74 -23 32 -24 37 -19 158 3 76 1 135 -6 148 -19
41 -32 104 -32 155 0 41 4 53 20 62 26 14 26 57 1 113 -11 23 -22 56 -25 72
-3 17 -9 48 -13 70 l-8 40 -57 0 c-31 0 -62 5 -67 10 -11 11 -24 91 -41 250
-4 44 -14 129 -20 190 -12 108 -12 110 10 127 18 14 41 18 111 18 71 0 91 3
95 15 4 8 2 21 -3 28 -6 6 -15 77 -22 157 -7 80 -21 173 -32 207 -31 101 -21
133 41 133 25 0 88 31 143 71 49 36 75 37 113 4 16 -14 32 -25 37 -25 4 0 36
-17 70 -38 136 -83 172 -103 437 -236 256 -129 393 -200 515 -266 72 -39 214
-110 336 -168 74 -35 120 -65 155 -99 65 -65 151 -122 298 -199 l121 -63 -2
-38 c-1 -21 -7 -82 -14 -135 -12 -89 -11 -100 6 -140 26 -61 50 -84 100 -98
91 -26 237 13 322 84 49 41 97 36 185 -19 122 -76 177 -56 263 95 21 36 47 81
58 100 11 19 54 100 94 179 82 160 85 175 99 408 6 104 4 126 -10 147 -9 14
-16 36 -16 50 0 71 -44 102 -99 70 -17 -10 -31 -21 -31 -24 0 -4 -26 -33 -57
-66 -32 -33 -78 -82 -103 -109 -25 -28 -68 -70 -95 -95 -42 -37 -53 -56 -69
-110 -11 -36 -23 -72 -27 -80 -4 -8 -15 -46 -24 -84 -23 -101 -62 -173 -127
-238 -32 -32 -58 -65 -58 -74 0 -9 8 -29 17 -45 28 -47 10 -64 -133 -125 -102
-45 -113 -46 -140 -19 -27 27 -32 83 -14 145 6 19 11 85 11 147 0 94 -4 117
-21 145 -11 18 -20 43 -20 56 0 26 -41 72 -65 72 -9 0 -35 9 -57 20 -54 26
-61 18 -10 -10 45 -25 65 -60 56 -95 -7 -27 -44 -55 -71 -55 -27 0 -179 79
-217 113 -11 9 -23 17 -28 17 -4 0 -23 14 -43 31 -33 30 -45 62 -26 73 4 3 11
20 15 37 6 33 23 59 37 59 4 0 34 -22 65 -50 57 -50 74 -59 74 -40 0 6 -4 10
-10 10 -11 0 -49 31 -90 73 -24 23 -35 27 -87 27 -65 0 -41 -13 -345 184 -68
44 -204 130 -303 192 -408 256 -591 371 -649 410 -56 37 -99 62 -231 135 l-50
27 5 64 c2 34 4 88 3 118 -1 30 -2 105 -2 166 0 112 -1 112 -32 143 -46 46
-85 64 -125 57 -26 -5 -38 -2 -54 14 -11 11 -20 24 -20 28 0 13 -57 42 -84 42
-17 0 -33 11 -52 35 -27 35 -57 45 -70 23 -4 -6 -2 -14 4 -16 8 -2 12 -35 12
-101 0 -85 3 -102 23 -131 28 -42 53 -53 41 -19 -15 49 2 149 27 149 6 0 19
-10 30 -22 22 -28 28 -153 7 -161 -9 -3 -2 -14 17 -30 l30 -26 17 37 c9 20 17
55 17 77 2 74 52 88 106 30 45 -48 63 -146 33 -183 -8 -9 -6 -17 5 -30 11 -12
17 -41 18 -100 3 -90 3 -90 -95 -207 l-40 -46 18 -30 c32 -54 8 -99 -77 -147
-42 -24 -135 -30 -154 -11 -19 19 -22 -5 -9 -57 20 -70 56 -324 56 -387 0 -24
-35 -22 -72 4 -30 22 -67 34 -149 49 -44 8 -141 44 -164 61 -5 4 -41 10 -78
14 -45 5 -70 12 -74 22 -5 13 37 107 152 336 28 57 49 85 70 96 47 25 81 51
66 51 -7 0 -40 -14 -73 -30 -56 -29 -62 -30 -84 -16 -34 23 -78 94 -98 161
-13 43 -18 88 -17 163 1 91 -2 109 -24 156 -23 48 -24 62 -21 163 4 115 12
142 48 167 l22 16 -21 0 c-12 0 -25 -4 -28 -10 -9 -15 -53 -12 -80 6 -20 13
-34 14 -72 6 -42 -8 -44 -10 -16 -11 44 -1 59 -28 72 -123 17 -122 -4 -151
-107 -146 l-57 3 0 112 1 112 -61 6 c-75 9 -172 57 -348 172 -73 48 -163 102
-202 121 -38 19 -83 45 -98 58 -16 13 -40 24 -53 24 -29 0 -75 -22 -93 -44 -7
-8 -26 -18 -43 -21 -23 -5 -34 -17 -49 -49 -36 -80 -20 -156 47 -215 47 -41
163 -94 187 -85 18 6 77 -17 252 -101 77 -37 187 -89 245 -117 132 -63 281
-148 287 -164 2 -7 -7 -35 -21 -63 -14 -28 -26 -62 -26 -76 0 -37 25 -92 69
-149 52 -69 71 -109 78 -164 4 -42 0 -56 -41 -134 -68 -128 -187 -450 -188
-508 -1 -32 47 -71 109 -89 26 -7 63 -20 81 -28 l32 -15 0 -196 c0 -201 -13
-348 -33 -391 -9 -18 -26 -28 -67 -39 -30 -7 -62 -20 -71 -28 -8 -8 -22 -14
-30 -14 -8 0 -51 41 -94 91 -44 50 -135 146 -201 214 -109 109 -123 127 -129
166 -9 58 -54 151 -105 218 -26 35 -40 64 -40 85 -1 69 -12 194 -20 237 -5 25
-10 145 -11 266 -2 300 -16 355 -97 389 -43 18 -92 62 -92 82 0 8 -13 38 -29
66 -36 63 -56 120 -71 210 -6 38 -18 85 -26 104 -8 19 -14 66 -14 105 0 84
-24 222 -50 282 -19 45 -58 79 -100 87 -153 32 -561 158 -590 182 -26 22 -45
24 -73 10z m242 -123 c29 -11 61 -27 71 -36 26 -24 120 -55 165 -55 39 0 106
-19 149 -42 36 -19 61 -56 80 -116 10 -31 22 -68 27 -82 9 -30 25 -151 40
-315 13 -143 26 -179 84 -234 25 -24 45 -47 45 -52 0 -5 -27 -8 -60 -7 -50 1
-64 -2 -84 -21 -39 -37 -69 -194 -85 -445 -6 -96 -13 -114 -38 -98 -14 9 -30
151 -38 346 -4 82 -11 159 -15 171 -9 23 -51 38 -77 28 -8 -3 -23 -26 -34 -52
-19 -42 -143 -181 -161 -181 -25 0 7 71 68 151 42 54 71 83 125 121 99 71 170
118 178 118 25 0 44 142 29 209 -4 20 -15 81 -24 136 -20 127 -42 212 -62 243
-20 30 -98 66 -178 82 -138 28 -137 27 -258 85 -42 20 -76 40 -76 45 0 15 33
30 55 26 11 -2 44 -13 74 -25z m779 -99 c4 -27 -70 -132 -93 -132 -7 0 -25 4
-39 10 -44 16 -31 71 28 123 41 35 99 35 104 -1z m127 -52 c16 -25 282 -170
313 -170 6 0 17 -7 25 -15 8 -8 62 -37 121 -66 l106 -52 0 -68 c0 -37 -4 -70
-8 -73 -13 -8 -647 313 -650 330 -2 8 1 20 6 27 5 7 12 25 16 42 4 16 12 36
18 42 13 16 44 17 53 3z m845 -529 c0 -30 -18 -71 -31 -71 -6 0 -24 11 -40 24
-15 13 -34 26 -40 28 -7 2 -10 12 -6 21 5 13 19 17 62 17 48 0 55 -3 55 -19z
m-25 -141 c10 -11 21 -41 26 -67 12 -79 46 -155 96 -217 27 -32 52 -65 58 -72
6 -9 -2 -37 -25 -91 -37 -85 -148 -315 -181 -376 -19 -34 -20 -42 -9 -83 9
-32 10 -48 2 -56 -16 -16 -122 0 -129 19 -3 9 4 43 17 77 12 33 26 75 30 92 4
17 17 51 28 75 11 24 46 97 76 163 77 164 75 225 -13 321 -58 63 -71 91 -71
148 0 31 3 62 6 71 9 23 67 21 89 -4z m976 -243 c19 -12 66 -41 104 -63 101
-59 224 -133 265 -159 90 -57 153 -96 243 -151 54 -32 131 -80 170 -105 104
-66 130 -81 152 -94 11 -5 65 -40 120 -76 55 -36 121 -78 147 -92 27 -15 96
-58 154 -97 58 -38 110 -70 114 -70 13 0 21 -33 12 -42 -6 -6 -45 13 -98 48
-49 32 -109 69 -134 82 -25 13 -65 37 -90 52 -163 99 -445 248 -660 348 -174
81 -197 92 -269 133 -68 37 -124 74 -261 166 -25 17 -55 34 -67 37 -27 9 -30
28 -7 47 9 7 20 23 25 36 11 29 37 29 80 0z m-628 -641 c31 -14 37 -21 37 -46
0 -17 7 -42 16 -55 9 -14 18 -53 21 -87 2 -33 6 -64 8 -68 4 -6 43 -393 48
-480 l2 -25 -126 -3 c-106 -2 -128 0 -132 13 -4 8 -3 72 2 142 5 71 7 144 6
163 -9 145 -3 416 11 459 5 16 50 11 107 -13z m3569 -131 c10 -89 12 -233 3
-288 -8 -55 -26 -77 -60 -77 -22 0 -24 -3 -19 -37 2 -21 1 -47 -4 -58 -31 -71
-121 -248 -149 -292 -18 -29 -33 -56 -33 -60 0 -11 -49 -63 -60 -63 -4 0 -39
20 -76 45 -37 25 -79 48 -93 51 -54 12 -61 16 -61 33 0 10 18 41 40 69 22 27
40 54 40 60 0 5 9 29 19 53 11 24 31 94 46 154 42 178 56 216 92 256 63 69
152 90 109 25 -22 -35 -20 -54 7 -58 16 -2 21 -9 19 -25 -5 -34 13 -28 37 12
19 33 51 48 51 24 0 -5 5 -7 10 -4 6 3 10 22 10 41 0 43 -22 45 -62 7 -57 -54
-42 28 18 100 13 16 24 34 24 40 0 20 44 58 65 55 17 -3 21 -13 27 -63z
m-3783 -110 l31 -36 0 -249 0 -249 -37 -27 c-21 -15 -50 -40 -65 -57 -30 -33
-52 -28 -44 11 21 116 28 181 35 352 5 115 4 203 -1 215 -13 29 6 75 31 75 10
0 33 -16 50 -35z m2846 -587 c1 -90 5 -175 9 -190 6 -21 5 -28 -5 -28 -25 1
-54 34 -69 79 -13 40 -12 53 8 150 12 58 22 118 22 132 0 14 3 29 7 33 19 19
27 -28 28 -176z m-2461 16 c38 -15 7 -68 -36 -62 -34 4 -39 55 -6 61 13 2 24
5 25 6 1 0 8 -2 17 -5z m-310 -30 c9 -8 16 -19 16 -24 0 -19 -34 -40 -65 -40
-19 0 -37 -5 -40 -10 -9 -14 -25 -2 -25 19 0 18 34 54 60 64 26 9 38 7 54 -9z
m169 -36 c10 -12 15 -28 12 -35 -3 -8 -5 -26 -5 -39 0 -32 -25 -31 -87 2 -66
34 -68 38 -47 74 18 30 21 32 64 26 29 -4 51 -14 63 -28z m-1516 -43 c172 -39
318 -163 427 -359 48 -86 60 -134 60 -241 0 -85 -3 -107 -23 -147 -40 -82
-120 -138 -199 -138 -12 0 -60 12 -105 27 -75 24 -88 33 -152 97 -90 91 -125
160 -125 246 0 36 -8 87 -19 119 -24 68 -74 331 -69 362 2 15 14 26 38 35 48
17 87 17 167 -1z m1608 -35 c0 -39 -3 -45 -22 -48 -21 -3 -23 1 -23 41 0 48 6
59 30 55 11 -2 15 -16 15 -48z m-304 0 c16 -9 19 -22 19 -75 l0 -65 -34 0
c-38 0 -44 9 -46 70 -3 59 -1 68 18 73 9 3 18 5 20 6 2 0 12 -4 23 -9z m-259
-25 c-5 -28 -28 -49 -46 -42 -21 8 -20 37 2 53 24 19 48 13 44 -11z m127 -1
c25 -31 28 -92 6 -100 -8 -3 -35 4 -60 16 -49 24 -56 44 -29 85 21 33 57 32
83 -1z m611 -19 c7 -4 -4 -20 -27 -41 -28 -25 -48 -33 -75 -34 -30 0 -38 4
-38 18 1 19 39 67 61 74 14 5 59 -5 79 -17z m-320 -23 c75 -37 75 -61 0 -76
-78 -16 -88 -24 -53 -46 26 -16 29 -16 49 0 31 23 112 26 121 4 9 -24 -14 -33
-76 -27 -41 3 -52 2 -41 -6 8 -6 27 -11 42 -11 41 0 63 -39 48 -85 -11 -34
-43 -65 -66 -65 -7 0 -42 45 -79 101 -61 90 -67 103 -56 125 6 14 11 42 11 63
0 61 17 65 100 23z m-470 -36 c18 -22 9 -61 -15 -61 -25 0 -48 44 -33 62 14
17 33 16 48 -1z m803 -49 c8 -53 -4 -145 -20 -151 -11 -5 -80 21 -143 53 -22
12 -24 50 -4 72 11 12 30 19 54 19 26 0 43 7 59 24 29 30 47 24 54 -17z m-690
2 c13 -18 13 -24 -1 -50 -18 -31 -31 -36 -50 -17 -13 13 -17 70 -5 81 13 14
42 6 56 -14z m89 -96 c9 -10 55 -83 104 -163 49 -80 115 -183 148 -230 33 -47
84 -121 114 -165 90 -132 123 -177 170 -232 24 -29 41 -57 37 -63 -3 -5 -21
-10 -40 -10 -25 0 -44 -10 -76 -40 -24 -22 -46 -40 -50 -40 -38 0 -344 290
-380 360 -66 129 -109 272 -109 367 0 110 31 233 59 233 4 0 15 -8 23 -17z
m514 -65 c48 -24 86 -50 90 -60 8 -25 -21 -68 -46 -68 -39 0 -159 52 -165 71
-11 32 5 99 22 99 9 0 53 -19 99 -42z m-330 -40 c17 -18 57 -67 90 -108 32
-41 64 -80 69 -86 12 -13 234 -153 281 -177 16 -8 48 -32 70 -51 21 -20 68
-50 104 -68 74 -36 166 -93 175 -108 21 -33 55 13 36 48 -11 20 -100 72 -123
72 -33 1 -40 16 -29 61 17 67 32 122 41 144 4 11 20 61 36 110 36 114 49 142
87 183 51 53 121 43 244 -36 29 -19 55 -42 58 -53 4 -10 10 -19 15 -19 11 0
96 -128 116 -176 26 -61 44 -141 44 -191 0 -44 -2 -47 -99 -142 -78 -75 -102
-105 -112 -139 -14 -47 -9 -46 -94 -26 -30 7 -30 7 17 -44 51 -55 61 -79 56
-137 -5 -60 -25 -64 -89 -16 -53 40 -228 131 -252 131 -7 0 -17 4 -23 9 -12
11 -203 71 -227 71 -37 0 -116 91 -279 320 -194 274 -254 373 -274 454 -6 25
-5 27 12 18 11 -6 33 -25 50 -44z m784 39 c0 -7 -10 -23 -23 -37 -33 -36 -74
-109 -82 -148 -5 -23 -12 -32 -23 -30 -43 8 -12 149 44 197 35 31 84 42 84 18z
m-500 -141 l65 -32 -3 -45 c-4 -59 -14 -66 -58 -43 -55 28 -104 82 -104 114 0
50 11 50 100 6z m160 -142 c0 -68 -8 -76 -51 -54 -24 13 -26 75 -3 128 l15 37
20 -24 c14 -17 19 -39 19 -87z m-1924 -71 c82 -130 124 -167 237 -208 54 -19
62 -25 65 -50 5 -40 -27 -104 -59 -121 -31 -16 -96 -18 -118 -5 -17 11 -7 41
13 41 31 0 49 77 24 98 -7 5 -27 13 -45 17 -27 5 -37 2 -58 -19 -16 -16 -25
-36 -25 -56 0 -16 -4 -30 -8 -30 -12 0 -74 68 -114 125 -97 139 -110 201 -49
242 19 13 49 23 67 23 30 0 37 -6 70 -57z m2036 -479 c79 -21 190 -74 257
-125 28 -21 57 -39 64 -39 7 0 34 -13 60 -29 58 -38 116 -115 117 -157 0 -63
-38 -138 -68 -132 -7 2 -22 28 -33 58 -28 79 -67 124 -113 128 -23 2 -36 8
-36 18 0 8 -4 14 -9 14 -20 0 -19 -16 2 -37 23 -22 147 -236 147 -254 0 -20
-53 -59 -82 -59 -16 0 -50 15 -81 36 -63 44 -157 134 -157 150 0 7 14 23 31
36 17 13 49 40 72 60 40 36 41 38 17 38 -15 0 -44 17 -70 41 -97 87 -225 154
-332 173 -72 13 -59 76 16 76 22 0 48 5 56 10 22 14 70 12 142 -6z m-404 -71
c47 -29 51 -39 37 -86 -12 -41 -13 -42 -59 -45 -46 -3 -66 -22 -23 -22 44 0
58 -20 55 -80 l-3 -55 -57 -3 c-49 -3 -58 0 -68 18 -12 22 -4 86 12 107 5 7 7
17 3 24 -9 14 -17 138 -10 150 10 15 84 10 113 -8z m150 -85 c16 -16 15 -40
-1 -62 -18 -25 -55 -13 -63 20 -11 42 34 72 64 42z m248 -80 c66 -42 104 -78
104 -98 0 -18 -42 -61 -77 -79 -12 -6 -38 -11 -57 -11 -32 0 -36 3 -45 38 -5
20 -14 56 -20 78 -12 47 -14 88 -4 97 14 15 52 5 99 -25z m-158 5 c2 -8 -5
-13 -17 -13 -12 0 -21 6 -21 16 0 18 31 15 38 -3z m-93 -128 c0 -83 -2 -90
-21 -93 -36 -5 -57 31 -55 95 2 85 7 95 44 91 l32 -3 0 -90z m114 28 c5 -21
19 -72 31 -113 13 -41 25 -96 27 -122 7 -64 -11 -63 -71 3 l-46 51 0 97 c0 96
8 121 37 121 7 0 17 -17 22 -37z m-334 -205 c41 -36 86 -102 157 -232 71 -129
60 -141 -67 -75 -140 73 -195 118 -195 160 0 15 4 30 9 34 5 3 12 20 16 38 13
61 28 107 36 107 5 0 25 -14 44 -32z m161 -66 c22 -15 64 -80 64 -99 0 -11 -8
-27 -19 -37 -17 -16 -19 -15 -33 6 -52 84 -60 164 -12 130z m338 -24 l26 -33
-23 -6 c-32 -9 -52 15 -48 59 2 21 18 13 45 -20z m-158 -43 c9 -13 26 -27 37
-31 29 -8 57 -34 57 -50 0 -7 14 -34 31 -59 29 -43 33 -46 72 -43 48 4 69 27
49 58 -14 22 -9 40 11 40 7 0 31 -18 55 -40 42 -39 42 -40 28 -69 -17 -33
-107 -111 -127 -111 -16 1 -49 24 -49 34 0 9 -58 82 -108 137 -45 50 -102 131
-102 146 0 22 29 14 46 -12z m166 -82 c18 -17 28 -37 28 -55 0 -38 -23 -36
-54 5 -26 34 -32 57 -19 70 10 11 15 9 45 -20z m-174 -93 c55 -87 60 -100 40
-100 -15 0 -148 130 -148 144 0 15 33 47 44 43 6 -2 35 -41 64 -87z m15 -162
c-9 -10 -24 -18 -34 -18 -10 0 -22 -8 -28 -17 -8 -14 -13 -15 -35 -5 -14 6
-26 19 -26 27 0 23 31 31 45 12 7 -10 15 -17 19 -17 14 0 5 32 -20 71 -14 23
-23 48 -19 57 4 12 18 4 60 -38 51 -51 54 -55 38 -72z m-853 56 c0 -30 -11
-36 -32 -17 -18 16 -24 44 -12 56 11 11 44 -18 44 -39z m238 -38 c35 -34 -13
-59 -72 -36 -25 9 -35 38 -18 54 11 11 73 -1 90 -18z m702 -56 c0 -11 -4 -28
-9 -38 -5 -9 -12 -25 -15 -34 -3 -10 -15 -18 -26 -18 -29 0 -26 41 6 79 30 36
44 39 44 11z m-255 -57 c14 -16 24 -37 23 -48 -3 -17 -10 -20 -58 -18 -62 1
-77 -11 -55 -44 26 -40 13 -68 -21 -45 -26 17 -54 79 -54 120 0 50 16 60 92
61 39 1 52 -4 73 -26z m-556 -65 c89 -120 282 -288 330 -288 43 0 60 20 67 75
9 78 13 95 28 95 14 0 61 -49 90 -95 31 -50 67 -84 97 -90 19 -4 30 -14 33
-28 2 -12 9 -46 15 -75 6 -30 11 -76 11 -104 0 -66 24 -146 55 -183 14 -16 43
-50 64 -75 71 -84 88 -145 55 -195 -22 -34 -38 -31 -71 13 -15 20 -47 60 -72
87 -24 28 -50 65 -58 83 -23 55 -77 102 -117 102 -51 0 -56 -21 -11 -46 33
-18 255 -296 255 -319 0 -13 -25 -46 -63 -84 -71 -70 -114 -101 -140 -101 -10
0 -66 44 -125 98 -196 180 -255 214 -473 270 -20 5 -58 6 -84 2 -60 -9 -185 4
-247 25 -45 16 -123 85 -180 160 -35 46 -93 109 -210 231 -99 101 -123 134
-99 134 6 0 70 -46 143 -102 185 -142 249 -182 364 -225 98 -37 101 -38 249
-39 142 -1 153 -2 207 -28 l57 -27 30 22 c28 21 33 21 93 9 35 -6 71 -16 81
-22 10 -5 27 -6 38 -3 19 6 19 8 4 25 -10 11 -31 22 -49 26 -43 9 -59 23 -46
40 11 12 91 40 134 46 32 5 29 25 -5 37 -66 23 -137 8 -205 -44 -18 -14 -37
-25 -43 -25 -20 0 -71 63 -66 80 3 9 -3 25 -15 35 -11 10 -20 28 -20 41 0 13
-4 33 -9 46 -5 13 -14 41 -21 63 -14 46 -29 82 -76 181 -19 39 -34 78 -34 86
0 8 -4 18 -9 24 -6 5 -13 33 -17 62 -5 44 -4 52 9 52 9 0 34 -24 56 -52z m721
-8 c0 -5 -4 -10 -10 -10 -5 0 -10 5 -10 10 0 6 5 10 10 10 6 0 10 -4 10 -10z
m-134 -82 c8 -26 0 -32 -31 -24 -16 4 -25 13 -25 25 0 35 44 35 56 -1z m132
-48 c19 -25 20 -33 10 -50 -7 -11 -17 -20 -23 -20 -6 0 -21 -10 -35 -22 -47
-42 -57 -48 -73 -42 -19 7 -77 97 -77 119 0 17 25 20 35 5 11 -18 61 -11 96
14 19 13 37 25 40 25 3 1 15 -12 27 -29z m-1081 -730 c31 -11 98 -23 165 -29
62 -5 133 -16 157 -25 24 -9 57 -16 73 -16 28 0 59 -12 82 -31 19 -16 87 -59
92 -59 6 0 76 -51 84 -61 23 -28 127 -109 140 -109 25 0 74 -55 64 -72 -15
-25 -91 -88 -105 -88 -8 0 -30 13 -50 29 -19 16 -51 36 -71 44 -20 8 -41 24
-47 35 -13 24 -2 60 23 81 9 7 16 18 16 24 0 6 -10 1 -23 -11 -13 -12 -31 -22
-40 -22 -9 0 -41 22 -72 49 -61 53 -160 106 -240 128 -27 7 -108 16 -180 19
-71 3 -147 10 -168 16 -38 9 -39 10 -32 46 8 45 31 72 59 72 12 0 44 -9 73
-20z"></path>
<path d="M1750 3353 c-70 -48 -73 -125 -7 -156 52 -25 84 -21 118 12 47 47 38
118 -17 145 -44 20 -63 20 -94 -1z"></path>
<path d="M3965 3493 c-77 -40 -125 -117 -125 -203 0 -108 69 -180 173 -180 47
0 65 14 102 80 26 48 34 185 12 226 -20 37 -64 84 -80 84 -7 0 -21 2 -32 4
-11 3 -33 -3 -50 -11z m113 -50 c35 -50 45 -98 33 -154 -14 -65 -24 -83 -62
-110 -37 -26 -93 -27 -120 -3 -28 25 -27 152 2 211 40 83 109 109 147 56z"></path>
<path d="M3737 2623 c-4 -3 -7 -15 -7 -27 0 -20 0 -20 15 0 8 10 15 22 15 27
0 9 -14 9 -23 0z"></path>
<path d="M2785 1170 c-3 -5 -1 -10 4 -10 6 0 11 5 11 10 0 6 -2 10 -4 10 -3 0
-8 -4 -11 -10z"></path>
<path d="M2936 6371 c-4 -5 -25 -12 -49 -16 -23 -3 -50 -9 -60 -12 -18 -5 -18
-6 2 -19 11 -8 23 -30 27 -49 25 -135 98 -214 186 -202 75 10 118 72 118 169
0 60 -2 64 -27 76 -16 6 -48 23 -73 37 -45 24 -114 33 -124 16z m83 -75 c30
-23 71 -90 71 -116 0 -15 -9 -39 -21 -54 -38 -48 -104 -25 -134 48 -42 99 12
178 84 122z"></path>
<path d="M974 4593 c-14 -221 -10 -347 15 -433 27 -92 68 -213 87 -260 9 -19
19 -44 24 -55 4 -11 16 -38 26 -60 17 -36 19 -38 22 -16 2 13 -5 42 -16 65
-12 22 -32 75 -45 116 -70 211 -93 391 -77 595 11 127 6 185 -15 185 -10 0
-15 -37 -21 -137z"></path>
<path d="M5425 4560 c3 -5 11 -10 16 -10 6 0 7 5 4 10 -3 6 -11 10 -16 10 -6
0 -7 -4 -4 -10z"></path>
<path d="M2200 3847 c-55 -43 -100 -106 -100 -141 0 -13 4 -16 18 -11 43 19
55 11 77 -45 104 -270 77 -804 -55 -1087 -35 -75 -65 -97 -131 -96 -50 1 -138
41 -186 86 -28 25 -30 11 -3 -23 56 -72 -14 -70 -100 2 -19 17 -83 77 -142
135 -108 105 -133 115 -79 32 40 -62 125 -138 274 -242 37 -27 67 -52 67 -57
0 -4 22 -22 48 -38 26 -16 56 -37 65 -47 10 -9 21 -15 24 -11 4 3 1 12 -5 18
-23 23 -14 48 17 48 46 0 104 -25 290 -124 97 -52 202 -102 233 -112 55 -17
60 -17 123 1 108 29 167 107 199 265 45 216 3 362 -204 700 -63 103 -345 549
-415 657 -7 11 -5 18 9 27 40 23 67 57 64 79 -5 34 -28 30 -88 -16z m225 -532
c89 -138 190 -322 221 -403 15 -42 3 -49 -63 -33 -27 7 -82 16 -123 21 -41 5
-85 12 -97 16 -14 4 -23 2 -23 -5 0 -6 10 -11 23 -11 13 0 27 -4 32 -9 18 -15
109 -40 175 -46 120 -11 102 9 155 -181 21 -74 26 -286 8 -305 -10 -10 -54 9
-205 83 -106 53 -217 104 -245 113 -60 19 -62 25 -38 102 8 26 19 62 24 78 6
17 13 56 17 88 3 32 13 65 21 73 10 10 12 18 5 27 -13 15 4 245 19 263 7 9 7
30 1 66 -16 79 -24 177 -17 189 11 17 35 -10 110 -126z m-77 -831 c51 -30 95
-54 98 -54 3 0 28 -15 57 -33 68 -43 135 -75 175 -83 25 -5 32 -11 32 -31 0
-86 -142 -130 -235 -72 -75 47 -355 189 -373 189 -36 0 -30 13 36 80 80 81 79
81 210 4z"></path>
<path d="M2010 2606 c0 -15 47 -42 56 -33 4 4 2 13 -5 21 -16 19 -51 27 -51
12z"></path>
<path d="M1775 2580 c3 -5 8 -10 11 -10 2 0 4 5 4 10 0 6 -5 10 -11 10 -5 0
-7 -4 -4 -10z"></path>
<path d="M4740 2244 c0 -8 5 -12 10 -9 6 3 10 10 10 16 0 5 -4 9 -10 9 -5 0
-10 -7 -10 -16z"></path>
<path d="M4698 2165 c-6 -14 -15 -25 -20 -25 -4 0 -8 -5 -8 -11 0 -15 16 -3
40 31 12 17 16 30 10 30 -6 0 -16 -11 -22 -25z"></path>
<path d="M4639 2094 c-12 -14 -11 -16 5 -13 11 2 21 10 24 17 5 17 -13 15 -29
-4z"></path>
<path d="M4013 1769 c-18 -5 -33 -14 -33 -19 0 -16 23 -12 55 10 32 22 28 23
-22 9z"></path>
<path d="M3800 1730 c20 -13 80 -13 80 0 0 6 -21 10 -47 10 -35 0 -44 -3 -33
-10z"></path>
<path d="M2825 250 c3 -5 13 -10 21 -10 8 0 14 -3 14 -8 0 -13 68 -45 84 -39
24 9 21 40 -3 32 -10 -3 -39 4 -65 15 -54 23 -60 24 -51 10z"></path>
</g>
</svg>